<svg xmlns="http://www.w3.org/2000/svg" width="225.445" height="56.367" viewBox="0 0 225.445 56.367">
  <g id="Grupo_4" data-name="Grupo 4" transform="translate(0 0)">
    <g id="Grupo_2" data-name="Grupo 2" transform="translate(0 0)">
      <path id="Trazado_1" data-name="Trazado 1" d="M270.182,83.846a3.486,3.486,0,1,1-3.08,5.324,3.487,3.487,0,1,1-3.085-5.3,3.487,3.487,0,1,1,6.165-.025Z" transform="translate(-238.081 -56.609)" fill="#f6a132" fill-rule="evenodd"/>
      <path id="Trazado_2" data-name="Trazado 2" d="M225.9,91.869a29.022,29.022,0,0,1-35.738-1.793,28.279,28.279,0,0,1-7.124-33.32,8.323,8.323,0,0,0,4.239,2.694,23.388,23.388,0,0,0,6.173,26.926A24,24,0,0,0,222.9,87.931a6.512,6.512,0,0,1,1.429-6.038A6.689,6.689,0,0,1,233.7,81.3a6.523,6.523,0,0,1,.6,9.273A6.691,6.691,0,0,1,225.9,91.869Z" transform="translate(-180.396 -40.804)" fill="#f6a132" fill-rule="evenodd"/>
      <path id="Trazado_3" data-name="Trazado 3" d="M234.2,7.036a28,28,0,0,1,7.1,32.958q-.25-.259-.526-.5a8.24,8.24,0,0,0-3.814-1.869A23.157,23.157,0,0,0,230.934,10.7a23.843,23.843,0,0,0-28.982-1.708A6.451,6.451,0,0,1,200.7,15.5a6.644,6.644,0,0,1-9.3.589,6.458,6.458,0,0,1-.6-9.19,6.646,6.646,0,0,1,7.82-1.561A28.832,28.832,0,0,1,234.2,7.036Z" transform="translate(-186.698 -0.006)" fill="#f7a128" fill-rule="evenodd"/>
    </g>
    <path id="Trazado_4" data-name="Trazado 4" d="M5.867,262V256.06H15.52v-5.224H5.867v-4.883H16.428v-5.223H0v26.5H16.882V262Zm19.814,5.224V249.019h.076l11.772,18.207H44.04v-26.5H38.172v18.207H38.1L26.324,240.729H19.814v26.5Zm44.91-23.469a13.727,13.727,0,0,0-9.766-3.482c-8.063,0-14.119,5.791-14.119,13.7s5.905,13.7,14.119,13.7a31,31,0,0,0,10.069-1.628V254.016H65.027V262a19.732,19.732,0,0,1-4.2.379,8.406,8.406,0,0,1,0-16.807,8.922,8.922,0,0,1,6.132,2.044Z" transform="translate(66.086 -223.511)" fill="#f6a132" fill-rule="evenodd"/>
    <path id="Trazado_5" data-name="Trazado 5" d="M260.01,245.953h7.268v21.273h5.905V245.953h7.268v-5.223H260.01v5.223ZM287.972,262V256.06h9.652v-5.224h-9.652v-4.883h10.561v-5.223H282.105v26.5h16.882V262Zm31.713-14.46,4.277-3.142c-1.855-2.536-5.678-4.126-9.614-4.126-8.063,0-14.119,5.791-14.119,13.7s5.9,13.7,14.119,13.7a12,12,0,0,0,10.107-4.845l-4.391-3.028a6.913,6.913,0,0,1-5.716,2.574,8.406,8.406,0,0,1,0-16.807,7.169,7.169,0,0,1,5.337,1.968Zm12.061,19.684V256.1h8.668v11.129h5.867v-26.5h-5.867v10.145h-8.668V240.729h-5.867v26.5Z" transform="translate(-120.837 -223.511)" fill="#fff" fill-rule="evenodd"/>
  </g>
</svg>
