<svg id="Componente_1_1" data-name="Componente 1 – 1" xmlns="http://www.w3.org/2000/svg" width="1389.798" height="347.483" viewBox="0 0 1389.798 347.483">
  <g id="Grupo_2" data-name="Grupo 2" transform="translate(-312.597 -0.006)">
    <path id="Trazado_1" data-name="Trazado 1" d="M319.489,110.209a21.488,21.488,0,1,1-18.99,32.822,21.5,21.5,0,1,1-19.016-32.666,21.5,21.5,0,1,1,38.006-.156Z" transform="translate(191.003 57.7)" fill="#f6a132" fill-rule="evenodd"/>
    <path id="Trazado_2" data-name="Trazado 2" d="M460.93,273.215c-65.588,46.461-157.151,43.927-220.311-11.05A174.334,174.334,0,0,1,196.7,56.756a51.311,51.311,0,0,0,26.135,16.607,144.179,144.179,0,0,0,38.057,165.992c52.027,45.284,127.351,47.535,181.542,9.584a40.145,40.145,0,0,1,8.808-37.221,41.234,41.234,0,0,1,57.768-3.661,40.211,40.211,0,0,1,3.7,57.164A41.251,41.251,0,0,1,460.93,273.215Z" transform="translate(132.201 41.589)" fill="#f6a132" fill-rule="evenodd"/>
    <path id="Trazado_3" data-name="Trazado 3" d="M466.8,43.348a172.614,172.614,0,0,1,43.768,203.175q-1.541-1.6-3.246-3.088a50.8,50.8,0,0,0-23.511-11.522A142.753,142.753,0,0,0,446.677,65.953C395.524,21.487,321.672,18.886,268.01,55.422a39.767,39.767,0,0,1-7.727,40.1,40.96,40.96,0,0,1-57.329,3.629,39.81,39.81,0,0,1-3.67-56.652,40.973,40.973,0,0,1,48.206-9.624C312.623-13.662,403.9-11.326,466.8,43.348Z" transform="translate(138.624)" fill="#f7a128" fill-rule="evenodd"/>
  </g>
  <path id="Trazado_4" data-name="Trazado 4" d="M36.169,374.218V337.582h59.5v-32.2h-59.5v-30.1h65.1v-32.2H0V406.421H104.074v-32.2Zm122.146,32.2V294.178h.466l72.573,112.243H271.49V243.075H235.321V355.316h-.468L162.282,243.075H122.146V406.421ZM435.172,261.743c-14-13.3-34.069-21.468-60.2-21.468-49.7,0-87.04,35.7-87.04,84.472s36.4,84.474,87.04,84.474a191.129,191.129,0,0,0,62.072-10.035V324.981H400.871v49.237a121.644,121.644,0,0,1-25.9,2.334c-29.169,0-50.4-21.936-50.4-51.8s21.7-51.8,50.4-51.8c16.334,0,28.937,4.667,37.8,12.6Z" transform="translate(407.403 -136.928)" fill="#f6a132" fill-rule="evenodd"/>
  <path id="Trazado_5" data-name="Trazado 5" d="M260.01,275.277h44.8V406.421h36.4V275.277h44.8v-32.2H260.01v32.2Zm172.379,98.941V337.582h59.5v-32.2h-59.5v-30.1h65.1v-32.2H396.219V406.421H500.294v-32.2Zm195.5-89.141,26.369-19.368c-11.433-15.634-35-25.435-59.27-25.435-49.7,0-87.04,35.7-87.04,84.472s36.4,84.474,87.04,84.474c29.869,0,51.1-13.769,62.3-29.869l-27.069-18.668c-6.067,8.4-18.2,15.868-35.235,15.868-29.169,0-50.4-21.936-50.4-51.8s21.7-51.8,50.4-51.8c13.767,0,26.6,4.667,32.9,12.133Zm74.351,121.344V337.815h53.437v68.606H791.85V243.075H755.681v62.538H702.244V243.075H666.074V406.421Z" transform="translate(597.948 -136.928)" fill="#fff" fill-rule="evenodd"/>
</svg>
